<svg width="107" height="107" viewBox="0 0 107 107" fill="none" xmlns="http://www.w3.org/2000/svg">
<path d="M54.0009 103.911C81.5652 103.911 103.911 81.5652 103.911 54.0009C103.911 26.4366 81.5652 4.09131 54.0009 4.09131C26.4366 4.09131 4.09131 26.4366 4.09131 54.0009C4.09131 81.5652 26.4366 103.911 54.0009 103.911Z" stroke="#C08D3B" stroke-linecap="round" stroke-linejoin="round"/>
<path d="M60.6406 37.4602L57.1709 41.2402L54.4336 38.4262L58.168 34.6479" stroke="#C08D3B" stroke-linecap="round" stroke-linejoin="round"/>
<path d="M60.9128 28.9282C60.9128 28.9282 61.0479 32.5239 58.1736 33.6341V34.5819" stroke="#C08D3B" stroke-linecap="round" stroke-linejoin="round"/>
<path d="M40.8804 44.5544C41.2456 41.1012 42.8343 38.9628 48.3382 37.3668C49.16 37.1294 50.6775 34.77 50.6775 34.77" stroke="#C08D3B" stroke-linecap="round" stroke-linejoin="round"/>
<path d="M67.936 44.1471C67.4923 40.9313 65.8123 38.8989 60.5275 37.3668C59.7057 37.1294 58.1882 34.77 58.1882 34.77" stroke="#C08D3B" stroke-linecap="round" stroke-linejoin="round"/>
<path d="M48.2175 37.3961L51.7584 41.2401L54.4336 38.426L50.6791 34.8213" stroke="#C08D3B" stroke-linecap="round" stroke-linejoin="round"/>
<path d="M48.0515 28.7075C48.0515 28.7075 47.7995 32.5241 50.6793 33.638V34.9163" stroke="#C08D3B" stroke-linecap="round" stroke-linejoin="round"/>
<path d="M61.5354 25.2799C58.747 24.018 57.7006 22.3471 56.4223 19.4363C56.4223 19.4363 51.7438 25.625 47.1493 25.3401C47.1493 25.3401 47.1292 22.2704 47.288 20.1028C47.3684 19.0163 47.9692 18.0813 48.7289 17.3217C51.6762 14.336 57.118 14.252 60.0508 17.276C61.9554 19.2391 61.7253 24.48 61.7472 25.331" stroke="#C08D3B" stroke-linecap="round" stroke-linejoin="round"/>
<path d="M47.2807 25.548C46.8881 25.1061 46.4608 24.8906 46.1157 25.0166C45.5039 25.2412 45.3852 26.4592 45.8564 27.7375C46.3275 29.0158 47.2004 29.8704 47.8121 29.6458C47.9473 29.5965 47.9527 29.633 48.0386 29.4961" stroke="#C08D3B" stroke-linecap="round" stroke-linejoin="round"/>
<path d="M61.6141 25.4713C62.0012 25.0276 62.2751 24.9655 62.6093 25.0878C63.2046 25.3051 63.3069 26.5177 62.8376 27.796C62.3683 29.0742 61.5082 29.9343 60.9128 29.7152" stroke="#C08D3B" stroke-linecap="round" stroke-linejoin="round"/>
<path d="M38.3017 73.984L34.8321 77.7622L32.0947 74.9482L35.8291 71.1699" stroke="#C08D3B" stroke-linecap="round" stroke-linejoin="round"/>
<path d="M38.5756 65.4507C38.5756 65.4507 38.7089 69.0463 35.8364 70.1566V71.1043" stroke="#C08D3B" stroke-linecap="round" stroke-linejoin="round"/>
<path d="M18.5432 81.0769C18.9084 77.6238 20.499 75.4854 26.0029 73.8912C26.8228 73.6519 28.3403 71.2944 28.3403 71.2944" stroke="#C08D3B" stroke-linecap="round" stroke-linejoin="round"/>
<path d="M45.5989 80.6697C45.1551 77.4539 43.4733 75.4215 38.1885 73.8912C37.3686 73.6519 35.8511 71.2944 35.8511 71.2944" stroke="#C08D3B" stroke-linecap="round" stroke-linejoin="round"/>
<path d="M25.8787 73.92L29.4213 77.7622L32.0948 74.9481L28.3403 71.3452" stroke="#C08D3B" stroke-linecap="round" stroke-linejoin="round"/>
<path d="M25.7126 65.2314C25.7126 65.2314 25.4606 69.0462 28.3404 70.162V71.4402" stroke="#C08D3B" stroke-linecap="round" stroke-linejoin="round"/>
<path d="M39.1983 61.8022C36.408 60.5404 35.3635 58.8695 34.0852 55.9586C34.0852 55.9586 29.4085 62.1473 24.814 61.8625C24.814 61.8625 24.7921 58.7928 24.9528 56.627C25.0331 55.5313 25.6321 54.6055 26.3918 53.844C29.3391 50.8601 34.7809 50.7761 37.7137 53.8002C39.6183 55.7632 39.3882 61.0024 39.4101 61.8533" stroke="#C08D3B" stroke-linecap="round" stroke-linejoin="round"/>
<path d="M24.9419 62.0706C24.5492 61.6305 24.1219 61.415 23.7768 61.541C23.165 61.7656 23.0464 62.9836 23.5175 64.2601C23.9886 65.5366 24.8615 66.393 25.4733 66.1684C25.6102 66.1191 25.6157 66.1574 25.7015 66.0187" stroke="#C08D3B" stroke-linecap="round" stroke-linejoin="round"/>
<path d="M39.2769 61.9939C39.6622 61.552 39.9361 61.4881 40.2703 61.6104C40.8656 61.8296 40.9679 63.0421 40.5004 64.3204C40.0329 65.5987 39.1692 66.457 38.5757 66.2397" stroke="#C08D3B" stroke-linecap="round" stroke-linejoin="round"/>
<path d="M82.9777 73.984L79.5099 77.7622L76.7708 74.9482L80.5052 71.1699" stroke="#C08D3B" stroke-linecap="round" stroke-linejoin="round"/>
<path d="M83.2463 65.4507C83.2463 65.4507 83.3796 69.0463 80.5071 70.1566V71.1043" stroke="#C08D3B" stroke-linecap="round" stroke-linejoin="round"/>
<path d="M63.2209 81.0769C63.5862 77.6238 65.1749 75.4854 70.6788 73.8912C71.5005 73.6519 73.018 71.2944 73.018 71.2944" stroke="#C08D3B" stroke-linecap="round" stroke-linejoin="round"/>
<path d="M90.2749 80.6697C89.8311 77.4539 88.1493 75.4215 82.8663 73.8912C82.0446 73.6519 80.5271 71.2944 80.5271 71.2944" stroke="#C08D3B" stroke-linecap="round" stroke-linejoin="round"/>
<path d="M70.5547 73.92L74.0974 77.7622L76.7708 74.9481L73.0181 71.3452" stroke="#C08D3B" stroke-linecap="round" stroke-linejoin="round"/>
<path d="M70.3904 65.2314C70.3904 65.2314 70.1383 69.0462 73.0181 70.162V71.4402" stroke="#C08D3B" stroke-linecap="round" stroke-linejoin="round"/>
<path d="M83.8744 61.8022C81.0841 60.5404 80.0396 58.8695 78.7521 55.9586C78.7521 55.9586 74.0755 62.1473 69.481 61.8625C69.481 61.8625 69.459 58.7928 69.6197 56.627C69.7001 55.5313 70.3009 54.6055 71.0606 53.844C74.0079 50.8601 79.4479 50.7761 82.3825 53.8002C84.289 55.7632 84.0589 61.0024 84.079 61.8533" stroke="#C08D3B" stroke-linecap="round" stroke-linejoin="round"/>
<path d="M69.6179 62.0706C69.2271 61.6305 68.798 61.415 68.4547 61.541C67.8429 61.7656 67.7242 62.9836 68.1935 64.2601C68.6628 65.5366 69.5375 66.393 70.1493 66.1684C70.2863 66.1191 70.2917 66.1574 70.3776 66.0187" stroke="#C08D3B" stroke-linecap="round" stroke-linejoin="round"/>
<path d="M83.953 61.9939C84.3383 61.552 84.6122 61.4881 84.9482 61.6104C85.5417 61.8296 85.6458 63.0421 85.1764 64.3204C84.7071 65.5987 83.847 66.457 83.2517 66.2397" stroke="#C08D3B" stroke-linecap="round" stroke-linejoin="round"/>
<path d="M51.5376 47.0342L43.4497 55.7411" stroke="#C08D3B" stroke-linecap="round" stroke-linejoin="round"/>
<path d="M43.3783 53.8418L43.1445 56.1135L45.513 55.3502" stroke="#C08D3B" stroke-linecap="round" stroke-linejoin="round"/>
<path d="M57.0505 46.8901L65.4543 55.2921" stroke="#C08D3B" stroke-linecap="round" stroke-linejoin="round"/>
<path d="M65.4525 53.3926L65.7721 55.6533L63.3762 54.9795" stroke="#C08D3B" stroke-linecap="round" stroke-linejoin="round"/>
</svg>
