<svg width="107" height="107" viewBox="0 0 107 107" fill="none" xmlns="http://www.w3.org/2000/svg">
<path d="M70.2715 55.851C67.2146 54.6037 67.6565 54.7754 64.2782 53.6487C62.7369 53.1355 59.9868 48.8569 59.9868 48.8569" stroke="#C08D3B" stroke-linecap="round" stroke-linejoin="round"/>
<path d="M64.2782 53.6485L58.1607 60.3139L53.8438 55.5185L59.9868 48.855" stroke="#C08D3B" stroke-linecap="round" stroke-linejoin="round"/>
<path d="M64.6015 39.1255C64.6015 39.1255 64.8316 45.3142 59.8755 47.2243V48.8532" stroke="#C08D3B" stroke-linecap="round" stroke-linejoin="round"/>
<path d="M30.3818 82.8571C30.2759 65.8559 26.6748 58.3707 42.962 53.6501C44.3772 53.2393 46.9794 49.1816 46.9794 49.1816" stroke="#C08D3B" stroke-linecap="round" stroke-linejoin="round"/>
<path d="M42.752 53.6997L48.8457 60.3139L53.1279 55.4637L46.9885 49.2695" stroke="#C08D3B" stroke-linecap="round" stroke-linejoin="round"/>
<path d="M42.4652 38.7476C42.4652 38.7476 42.0306 45.3216 46.9867 47.2244V49.4157" stroke="#C08D3B" stroke-linecap="round" stroke-linejoin="round"/>
<path d="M53.8438 55.4639H53.1279" stroke="#C08D3B" stroke-linecap="round" stroke-linejoin="round"/>
<path d="M52.1473 61.4805L48.7161 78.3209L53.3544 84.5115" stroke="#C08D3B" stroke-linecap="round" stroke-linejoin="round"/>
<path d="M55.1733 61.4805L58.6046 78.3209L53.3545 84.5115" stroke="#C08D3B" stroke-linecap="round" stroke-linejoin="round"/>
<path d="M65.6735 32.8473C60.8708 30.6742 59.0612 27.7999 56.8589 22.8037C56.8589 22.8037 48.8093 33.4536 40.9023 32.9642C40.9023 32.9642 40.8657 27.6794 41.1396 23.9505C41.2784 22.0805 42.312 20.4717 43.6195 19.1624C48.6906 14.0255 58.0568 13.8813 63.106 19.0857C66.393 22.464 65.9895 31.4832 66.0278 32.9477" stroke="#C08D3B" stroke-linecap="round" stroke-linejoin="round"/>
<path d="M51.2051 57.6421V61.3254H55.9712V57.9197" stroke="#C08D3B" stroke-linecap="round" stroke-linejoin="round"/>
<path d="M41.1378 33.3073C40.4639 32.5494 39.7262 32.1787 39.129 32.3942C38.0754 32.7795 37.8763 34.8759 38.6817 37.0764C39.487 39.2768 40.9953 40.745 42.0472 40.3634C42.2809 40.2776 42.2919 40.3415 42.4398 40.1059" stroke="#C08D3B" stroke-linecap="round" stroke-linejoin="round"/>
<path d="M65.8086 33.1758C66.4733 32.4143 66.9445 32.3047 67.5197 32.5165C68.5441 32.8818 68.7194 34.9781 67.9141 37.1786C67.1088 39.3791 65.6242 40.8564 64.6016 40.4821" stroke="#C08D3B" stroke-linecap="round" stroke-linejoin="round"/>
<path d="M82.5632 53.0786L68.8216 60.2918L55.0235 60.6059L53.0549 73.9237L59.481 74.9518L59.8755 91.7101L71.1645 91.0472L70.2716 76.9332L85.6603 84.5116L95.1524 67.3242L90.7789 53.0786H82.5632Z" fill="white"/>
<path d="M54.0009 103.911C81.5652 103.911 103.911 81.5652 103.911 54.0009C103.911 26.4366 81.5652 4.09131 54.0009 4.09131C26.4366 4.09131 4.09131 26.4366 4.09131 54.0009C4.09131 81.5652 26.4366 103.911 54.0009 103.911Z" stroke="#C08D3B" stroke-linecap="round" stroke-linejoin="round"/>
<path d="M68.7578 61.9885H71.2559L84.1483 55.146V79.3512L70.8615 73.0146H67.7954" stroke="#C08D3B" stroke-linecap="round" stroke-linejoin="round"/>
<path d="M67.8119 61.2744H60.491C59.9333 61.2744 59.4812 61.7265 59.4812 62.2843V72.2129C59.4812 72.7706 59.9333 73.2227 60.491 73.2227H67.8119C68.3697 73.2227 68.8218 72.7706 68.8218 72.2129V62.2843C68.8218 61.7265 68.3697 61.2744 67.8119 61.2744Z" stroke="#C08D3B" stroke-linecap="round" stroke-linejoin="round"/>
<path d="M56.8349 62.2529H59.5449V72.2509H56.8349C56.5971 72.2509 56.3615 72.2041 56.1417 72.113C55.9219 72.022 55.7222 71.8886 55.554 71.7203C55.3858 71.5521 55.2524 71.3524 55.1613 71.1326C55.0703 70.9129 55.0234 70.6773 55.0234 70.4394V64.0608C55.0244 63.581 55.2157 63.1212 55.5553 62.7822C55.8949 62.4433 56.3551 62.2529 56.8349 62.2529Z" stroke="#C08D3B" stroke-linecap="round" stroke-linejoin="round"/>
<path d="M66.5591 73.5767H61.5684V89.4292H66.5591V73.5767Z" stroke="#C08D3B" stroke-linecap="round" stroke-linejoin="round"/>
<path d="M85.3023 54.001H84.5627C84.3338 54.001 84.1482 54.1866 84.1482 54.4155V80.0852C84.1482 80.3142 84.3338 80.4998 84.5627 80.4998H85.3023C85.5312 80.4998 85.7168 80.3142 85.7168 80.0852V54.4155C85.7168 54.1866 85.5312 54.001 85.3023 54.001Z" stroke="#C08D3B" stroke-linecap="round" stroke-linejoin="round"/>
<path d="M86.1206 62.8008H87.5431C87.9674 62.8008 88.3743 62.9693 88.6743 63.2693C88.9743 63.5693 89.1428 63.9762 89.1428 64.4005V70.0797C89.1428 70.5039 88.9743 70.9108 88.6743 71.2108C88.3743 71.5108 87.9674 71.6794 87.5431 71.6794H86.1206V62.8008Z" stroke="#C08D3B" stroke-linecap="round" stroke-linejoin="round"/>
</svg>
