<svg width="107" height="107" viewBox="0 0 107 107" fill="none" xmlns="http://www.w3.org/2000/svg">
<path d="M52.0396 70.9161C61.3817 70.9161 68.9549 63.3429 68.9549 54.0008C68.9549 44.6587 61.3817 37.0854 52.0396 37.0854C42.6975 37.0854 35.1243 44.6587 35.1243 54.0008C35.1243 63.3429 42.6975 70.9161 52.0396 70.9161Z" stroke="#C08D3B" stroke-linecap="round" stroke-linejoin="round"/>
<path d="M52.0398 77.2075C64.7635 77.2075 75.0781 66.8929 75.0781 54.1692C75.0781 41.4455 64.7635 31.1309 52.0398 31.1309C39.3161 31.1309 29.0015 41.4455 29.0015 54.1692C29.0015 66.8929 39.3161 77.2075 52.0398 77.2075Z" stroke="#C08D3B" stroke-linecap="round" stroke-linejoin="round"/>
<path d="M35.9753 70.8667L37.7595 81.8398H52.0397" stroke="#C08D3B" stroke-linecap="round" stroke-linejoin="round"/>
<path d="M68.1021 70.8667L66.318 81.8398H52.0396" stroke="#C08D3B" stroke-linecap="round" stroke-linejoin="round"/>
<path d="M40.2576 82.2563L41.2382 88.8578H53.906" stroke="#C08D3B" stroke-linecap="round" stroke-linejoin="round"/>
<path d="M64.3587 82.2563L63.378 88.8578H51.3184" stroke="#C08D3B" stroke-linecap="round" stroke-linejoin="round"/>
<path d="M35.9753 37.4362L37.7595 26.4648H52.0397" stroke="#C08D3B" stroke-linecap="round" stroke-linejoin="round"/>
<path d="M68.1021 37.4362L66.318 26.4648H52.0396" stroke="#C08D3B" stroke-linecap="round" stroke-linejoin="round"/>
<path d="M40.2576 26.0467L41.2382 19.4453H53.906" stroke="#C08D3B" stroke-linecap="round" stroke-linejoin="round"/>
<path d="M64.3587 26.0467L63.378 19.4453H51.3184" stroke="#C08D3B" stroke-linecap="round" stroke-linejoin="round"/>
<path d="M35.3105 54.103H38.6523" stroke="#C08D3B" stroke-linecap="round" stroke-linejoin="round"/>
<path d="M65.427 54.103H68.767" stroke="#C08D3B" stroke-linecap="round" stroke-linejoin="round"/>
<path d="M52.0396 37.376V40.7178" stroke="#C08D3B" stroke-linecap="round" stroke-linejoin="round"/>
<path d="M52.0396 67.4902V70.832" stroke="#C08D3B" stroke-linecap="round" stroke-linejoin="round"/>
<path d="M74.7109 50.228H77.9979V57.8959H74.983" stroke="#C08D3B" stroke-linecap="round" stroke-linejoin="round"/>
<path d="M71.7891 42.0853L74.762 40.8545L76.8839 45.9767L74.1557 47.1071" stroke="#C08D3B" stroke-linecap="round" stroke-linejoin="round"/>
<path d="M71.7891 66.0076L74.5392 67.1453L76.6593 62.0231L74.1374 60.9785" stroke="#C08D3B" stroke-linecap="round" stroke-linejoin="round"/>
<path d="M46.238 47.4746L52.0725 53.11V60.7322" stroke="#C08D3B" stroke-linecap="round" stroke-linejoin="round"/>
<path d="M57.8394 47.4761L49.8191 55.3631" stroke="#C08D3B" stroke-linecap="round" stroke-linejoin="round"/>
<path d="M92.0589 46.0117L75.076 48.0058L68.9549 58.8785H57.3481L57.0486 79.2251L59.2673 81.022L61.2377 80.5235L70.0451 80.4596L70.7956 75.8249L87.2708 83.4562L95.4683 67.1162L92.0589 46.0117Z" fill="white"/>
<path d="M54.0009 103.911C81.5652 103.911 103.911 81.5652 103.911 54.0009C103.911 26.4366 81.5652 4.09131 54.0009 4.09131C26.4366 4.09131 4.09131 26.4366 4.09131 54.0009C4.09131 81.5652 26.4366 103.911 54.0009 103.911Z" stroke="#C08D3B" stroke-linecap="round" stroke-linejoin="round"/>
<path d="M66.0751 61.9009H61.7673C60.7668 61.9009 59.9558 62.7119 59.9558 63.7124V76.1409C59.9558 77.1414 60.7668 77.9524 61.7673 77.9524H66.0751C67.0756 77.9524 67.8866 77.1414 67.8866 76.1409V63.7124C67.8866 62.7119 67.0756 61.9009 66.0751 61.9009Z" stroke="#C08D3B" stroke-linecap="round" stroke-linejoin="round"/>
<path d="M63.9205 76.3674C64.6003 76.3674 65.1513 75.8163 65.1513 75.1366C65.1513 74.4568 64.6003 73.9058 63.9205 73.9058C63.2407 73.9058 62.6897 74.4568 62.6897 75.1366C62.6897 75.8163 63.2407 76.3674 63.9205 76.3674Z" stroke="#C08D3B" stroke-linecap="round" stroke-linejoin="round"/>
<path d="M67.8868 63.1971H69.817C70.0339 63.1975 70.2471 63.1419 70.4362 63.0356C70.6253 62.9294 70.7837 62.7762 70.8962 62.5908C71.7563 61.1738 73.8929 57.7133 74.6635 56.9974C76.0459 55.7192 78.3158 54.5468 78.7485 52.9599C79.1813 51.373 79.1813 48.6831 80.4304 48.3471C81.6795 48.0111 83.7466 48.2978 83.7466 50.942C83.7466 53.5863 83.1221 56.1812 81.8237 57.5745C80.5254 58.9678 80.6788 60.4415 81.3051 60.4415C81.9315 60.4415 87.1633 60.5401 87.1633 60.5401C87.1633 60.5401 89.9445 60.3703 90.1691 62.5872C90.328 64.1558 89.8258 65.509 88.2681 65.6532C88.2681 65.6532 90.076 66.0185 89.981 67.6985C89.886 69.3785 88.9839 69.8168 87.7696 69.9263C88.119 70.0763 88.4158 70.3269 88.622 70.6464C88.8282 70.9658 88.9345 71.3394 88.9273 71.7196C88.9383 72.8445 88.3302 73.4946 86.9186 73.7429C86.9186 73.7429 88.2608 74.3857 87.9157 75.8941C87.5103 77.6709 85.8047 77.4719 85.8047 77.4719C85.8047 77.4719 75.3739 77.4627 72.2019 77.4719C69.9065 77.4719 69.2235 76.3671 69.2235 76.3671H67.8777" stroke="#C08D3B" stroke-linecap="round" stroke-linejoin="round"/>
</svg>
