<svg width="107" height="107" viewBox="0 0 107 107" fill="none" xmlns="http://www.w3.org/2000/svg">
<path d="M52.1931 69.8641C61.0392 69.8641 68.2104 62.3137 68.2104 52.9999C68.2104 43.6861 61.0392 36.1357 52.1931 36.1357C43.347 36.1357 36.1758 43.6861 36.1758 52.9999C36.1758 62.3137 43.347 69.8641 52.1931 69.8641Z" stroke="#C18D3D" stroke-linecap="round" stroke-linejoin="round"/>
<path d="M52.193 76.1368C64.2401 76.1368 74.0062 65.8536 74.0062 53.1687C74.0062 40.4838 64.2401 30.2007 52.193 30.2007C40.146 30.2007 30.3799 40.4838 30.3799 53.1687C30.3799 65.8536 40.146 76.1368 52.193 76.1368Z" stroke="#C18D3D" stroke-linecap="round" stroke-linejoin="round"/>
<path d="M36.9849 69.8164L38.6733 80.7541H52.1935" stroke="#C18D3D" stroke-linecap="round" stroke-linejoin="round"/>
<path d="M67.4037 69.8164L65.7135 80.7541H52.1934" stroke="#C18D3D" stroke-linecap="round" stroke-linejoin="round"/>
<path d="M41.0386 81.1709L41.9681 87.7519H53.9615" stroke="#C18D3D" stroke-linecap="round" stroke-linejoin="round"/>
<path d="M63.8598 81.1709L62.9303 87.7519H51.5127" stroke="#C18D3D" stroke-linecap="round" stroke-linejoin="round"/>
<path d="M36.9849 36.4873L38.6733 25.5479H52.1935" stroke="#C18D3D" stroke-linecap="round" stroke-linejoin="round"/>
<path d="M67.4037 36.4873L65.7135 25.5479H52.1934" stroke="#C18D3D" stroke-linecap="round" stroke-linejoin="round"/>
<path d="M41.0386 25.1309L41.9681 18.5498H53.9615" stroke="#C18D3D" stroke-linecap="round" stroke-linejoin="round"/>
<path d="M63.8598 25.1309L62.9303 18.5498H51.5127" stroke="#C18D3D" stroke-linecap="round" stroke-linejoin="round"/>
<path d="M36.3535 53.103H39.5172" stroke="#C18D3D" stroke-linecap="round" stroke-linejoin="round"/>
<path d="M64.8691 53.103H68.0328" stroke="#C18D3D" stroke-linecap="round" stroke-linejoin="round"/>
<path d="M52.1934 36.4248V39.7561" stroke="#C18D3D" stroke-linecap="round" stroke-linejoin="round"/>
<path d="M52.1934 66.4492V69.7805" stroke="#C18D3D" stroke-linecap="round" stroke-linejoin="round"/>
<path d="M73.6616 49.2393H76.7737V56.8829H73.9176" stroke="#C18D3D" stroke-linecap="round" stroke-linejoin="round"/>
<path d="M70.8945 41.122L73.7098 39.8945L75.7182 45.0015L73.1357 46.1279" stroke="#C18D3D" stroke-linecap="round" stroke-linejoin="round"/>
<path d="M70.8945 64.97L73.4983 66.1053L75.5067 60.9983L73.118 59.957" stroke="#C18D3D" stroke-linecap="round" stroke-linejoin="round"/>
<path d="M46.7012 46.4951L52.2251 52.113V59.7122" stroke="#C18D3D" stroke-linecap="round" stroke-linejoin="round"/>
<path d="M57.6853 46.4951L50.0908 54.3587" stroke="#C18D3D" stroke-linecap="round" stroke-linejoin="round"/>
<path d="M78.2883 53.9152C78.7095 53.6935 83.4425 41.8228 83.4425 41.8228L68.6605 43.7598L62.4718 45.0157L63.8599 54.662L57.2305 65.4932V77.011L65.6692 89.9797L88.9362 90.6697L97.247 63.1145L78.2883 53.9152Z" fill="white"/>
<path d="M70.2439 55.5386C70.2439 55.5386 58.5224 63.2194 60.9752 75.4183C63.0902 85.9231 75.4248 84.4366 75.4248 84.4366" stroke="#C18D3D" stroke-linecap="round" stroke-linejoin="round"/>
<path d="M77.7247 55.5386C77.7247 55.5386 89.4462 63.2194 86.9917 75.4183C84.8784 85.9231 72.542 84.4366 72.542 84.4366" stroke="#C18D3D" stroke-linecap="round" stroke-linejoin="round"/>
<path d="M70.1956 55.4852C70.1956 55.4852 65.6279 48.0208 66.8756 47.3148C68.1232 46.6088 70.8532 48.6417 72.7816 48.6417C74.4096 48.6417 79.7701 46.3977 80.8631 47.1622C81.6878 47.7388 77.7244 55.5384 77.7244 55.5384" stroke="#C18D3D" stroke-linecap="round" stroke-linejoin="round"/>
<path d="M70.3096 55.5386H74.3246" stroke="#C18D3D" stroke-linecap="round" stroke-linejoin="round"/>
<path d="M73.5303 54.4473H78.1815" stroke="#C18D3D" stroke-linecap="round" stroke-linejoin="round"/>
<path d="M77.257 68.083C77.257 68.083 77.4258 64.7819 74.0471 64.7783C70.7093 64.7783 70.7324 66.7668 70.7146 67.6999C70.6969 68.6329 70.6187 70.2933 73.9867 70.2897" stroke="#C18D3D" stroke-linecap="round" stroke-linejoin="round"/>
<path d="M70.7184 72.4967C70.7184 72.4967 70.5407 75.7979 73.9176 75.7997C77.2536 75.7997 77.2305 73.813 77.2501 72.8781C77.2696 71.9433 77.3443 70.2865 73.978 70.29" stroke="#C18D3D" stroke-linecap="round" stroke-linejoin="round"/>
<path d="M73.8218 64.7787V62.792" stroke="#C18D3D" stroke-linecap="round" stroke-linejoin="round"/>
<path d="M73.8218 77.7878V75.7993" stroke="#C18D3D" stroke-linecap="round" stroke-linejoin="round"/>
<path d="M54.2437 103.243C81.8579 103.243 104.244 80.8574 104.244 53.2432C104.244 25.6289 81.8579 3.24316 54.2437 3.24316C26.6294 3.24316 4.24365 25.6289 4.24365 53.2432C4.24365 80.8574 26.6294 103.243 54.2437 103.243Z" stroke="#C18D3D" stroke-linecap="round" stroke-linejoin="round"/>
</svg>
